# This file uses centimeters as units for non-parametric coordinates.

g default
v 1455.212336 -14.516868 -679.582185
v 635.399957 -14.516868 -1275.210763
v -377.943894 -14.516868 -1275.210513
v -1197.756210 -14.516868 -679.581934
v -1510.896570 -14.516868 284.165286
v -1197.755960 -14.516868 1247.912499
v -377.943612 -14.516868 1843.540890
v 635.400082 -14.516868 1843.540765
v 1455.212336 -14.516868 1247.912311
v 1768.352696 -14.516868 284.165189
v 1455.212336 631.157663 -679.582185
v 635.399957 631.157663 -1275.210763
v -377.943894 631.157663 -1275.210513
v -1197.756210 631.157663 -679.581934
v -1510.896570 631.157663 284.165286
v -1197.755960 631.157663 1247.912499
v -377.943612 631.157663 1843.540890
v 635.400082 631.157663 1843.540765
v 1455.212336 631.157663 1247.912311
v 1768.352696 631.157663 284.165189
vt 0.375000 0.312500
vt 0.400000 0.312500
vt 0.425000 0.312500
vt 0.450000 0.312500
vt 0.475000 0.312500
vt 0.500000 0.312500
vt 0.525000 0.312500
vt 0.550000 0.312500
vt 0.575000 0.312500
vt 0.600000 0.312500
vt 0.625000 0.312500
vt 0.375000 0.688440
vt 0.400000 0.688440
vt 0.425000 0.688440
vt 0.450000 0.688440
vt 0.475000 0.688440
vt 0.500000 0.688440
vt 0.525000 0.688440
vt 0.550000 0.688440
vt 0.575000 0.688440
vt 0.600000 0.688440
vt 0.625000 0.688440
vn -0.809017 0.000000 0.587785
vn -0.809017 0.000000 0.587785
vn -0.309017 0.000000 0.951057
vn -0.309017 0.000000 0.951057
vn 0.309017 0.000000 0.951056
vn 0.309017 0.000000 0.951056
vn 0.809017 0.000000 0.587785
vn 0.809017 0.000000 0.587785
vn 1.000000 0.000000 -0.000000
vn 1.000000 0.000000 -0.000000
vn 0.809017 0.000000 -0.587785
vn 0.809017 0.000000 -0.587785
vn 0.309017 0.000000 -0.951057
vn 0.309017 0.000000 -0.951057
vn -0.309017 0.000000 -0.951057
vn -0.309017 0.000000 -0.951057
vn -0.809017 0.000000 -0.587785
vn -0.809017 0.000000 -0.587785
vn -1.000000 0.000000 -0.000000
vn -1.000000 0.000000 -0.000000
s 1
g FOREST
f 1/1/1 11/12/2 12/13/3 2/2/4
f 2/2/4 12/13/3 13/14/5 3/3/6
f 3/3/6 13/14/5 14/15/7 4/4/8
f 4/4/8 14/15/7 15/16/9 5/5/10
f 5/5/10 15/16/9 16/17/11 6/6/12
f 6/6/12 16/17/11 17/18/13 7/7/14
f 7/7/14 17/18/13 18/19/15 8/8/16
f 8/8/16 18/19/15 19/20/17 9/9/18
f 9/9/18 19/20/17 20/21/19 10/10/20
f 10/10/20 20/21/19 11/22/2 1/11/1
