# This file uses centimeters as units for non-parametric coordinates.

mtllib inside.mtl
g default
v 283.833080 5.437721 643.234491
v 277.989706 5.437721 308.467828
v 284.369832 71.109983 673.984997
v 277.989706 71.109983 308.467828
v -107.687449 71.109983 680.828382
v -114.067575 71.109983 315.311213
v -108.224201 5.437721 650.077876
v -114.067575 5.437721 315.311213
vt 0.375000 0.000000
vt 0.625000 0.000000
vt 0.375000 0.250000
vt 0.625000 0.250000
vt 0.375000 0.500000
vt 0.625000 0.500000
vt 0.375000 0.750000
vt 0.625000 0.750000
vt 0.375000 1.000000
vt 0.625000 1.000000
vt 0.875000 0.000000
vt 0.875000 0.250000
vt 0.125000 0.000000
vt 0.125000 0.250000
vn 0.999848 0.000000 -0.017452
vn 0.999848 0.000000 -0.017452
vn 0.999848 0.000000 -0.017452
vn 0.999848 0.000000 -0.017452
vn 0.000000 1.000000 -0.000000
vn 0.000000 1.000000 -0.000000
vn 0.000000 1.000000 -0.000000
vn 0.000000 1.000000 -0.000000
vn -0.999848 0.000000 0.017452
vn -0.999848 0.000000 0.017452
vn -0.999848 0.000000 0.017452
vn -0.999848 0.000000 0.017452
vn 0.000000 -1.000000 0.000000
vn 0.000000 -1.000000 0.000000
vn 0.000000 -1.000000 0.000000
vn 0.000000 -1.000000 0.000000
vn -0.017452 0.000000 -0.999848
vn -0.017452 0.000000 -0.999848
vn -0.017452 0.000000 -0.999848
vn -0.017452 0.000000 -0.999848
vn 0.015805 -0.424110 0.905473
vn 0.015805 -0.424110 0.905473
vn 0.015805 -0.424110 0.905473
vn 0.015805 -0.424110 0.905473
s off
g inside Triggers
usemtl lambert2SG
f 1/1/1 2/2/2 4/4/3 3/3/4
f 3/3/5 4/4/6 6/6/7 5/5/8
f 5/5/9 6/6/10 8/8/11 7/7/12
f 7/7/13 8/8/14 2/10/15 1/9/16
f 2/2/17 8/11/18 6/12/19 4/4/20
f 7/13/21 1/1/22 3/3/23 5/14/24
