# This file uses centimeters as units for non-parametric coordinates.

g default
v -99.092048 19.646856 352.855744
v -69.025970 19.646856 338.835702
v -99.092048 56.900848 352.855744
v -69.025970 56.900848 338.835702
v -111.079009 56.900848 327.149623
v -81.012931 56.900848 313.129580
v -111.079009 19.646856 327.149623
v -81.012931 19.646856 313.129580
vt 0.375000 0.000000
vt 0.625000 0.000000
vt 0.375000 0.250000
vt 0.625000 0.250000
vt 0.375000 0.500000
vt 0.625000 0.500000
vt 0.375000 0.750000
vt 0.625000 0.750000
vt 0.375000 1.000000
vt 0.625000 1.000000
vt 0.875000 0.000000
vt 0.875000 0.250000
vt 0.125000 0.000000
vt 0.125000 0.250000
vn 0.422618 0.000000 0.906308
vn 0.422618 0.000000 0.906308
vn 0.422618 0.000000 0.906308
vn 0.422618 0.000000 0.906308
vn 0.000000 1.000000 0.000000
vn 0.000000 1.000000 0.000000
vn 0.000000 1.000000 0.000000
vn 0.000000 1.000000 0.000000
vn -0.422618 0.000000 -0.906308
vn -0.422618 0.000000 -0.906308
vn -0.422618 0.000000 -0.906308
vn -0.422618 0.000000 -0.906308
vn 0.000000 -1.000000 0.000000
vn 0.000000 -1.000000 0.000000
vn 0.000000 -1.000000 0.000000
vn 0.000000 -1.000000 0.000000
vn 0.906308 0.000000 -0.422618
vn 0.906308 0.000000 -0.422618
vn 0.906308 0.000000 -0.422618
vn 0.906308 0.000000 -0.422618
vn -0.906308 0.000000 0.422618
vn -0.906308 0.000000 0.422618
vn -0.906308 0.000000 0.422618
vn -0.906308 0.000000 0.422618
s off
g window Triggers
f 1/1/1 2/2/2 4/4/3 3/3/4
f 3/3/5 4/4/6 6/6/7 5/5/8
f 5/5/9 6/6/10 8/8/11 7/7/12
f 7/7/13 8/8/14 2/10/15 1/9/16
f 2/2/17 8/11/18 6/12/19 4/4/20
f 7/13/21 1/1/22 3/3/23 5/14/24
