# This file uses centimeters as units for non-parametric coordinates.

g default
v 231.628608 61.138628 702.038383
v 231.593049 61.421408 691.914094
v 218.436570 61.137334 702.084680
v 218.401011 61.420115 691.960391
v 218.436570 45.848998 701.657663
v 218.401011 46.131778 691.533374
v 231.628608 45.850291 701.611366
v 231.593049 46.133071 691.487077
vt 0.375000 0.000000
vt 0.625000 0.000000
vt 0.375000 0.250000
vt 0.625000 0.250000
vt 0.375000 0.500000
vt 0.625000 0.500000
vt 0.375000 0.750000
vt 0.625000 0.750000
vt 0.375000 1.000000
vt 0.625000 1.000000
vt 0.875000 0.000000
vt 0.875000 0.250000
vt 0.125000 0.000000
vt 0.125000 0.250000
vn -0.000000 0.999610 0.027920
vn -0.000000 0.999610 0.027920
vn -0.000000 0.999610 0.027920
vn -0.000000 0.999610 0.027920
vn -0.999994 -0.000098 0.003509
vn -0.999994 -0.000098 0.003509
vn -0.999994 -0.000098 0.003509
vn -0.999994 -0.000098 0.003509
vn 0.000000 -0.999610 -0.027920
vn 0.000000 -0.999610 -0.027920
vn 0.000000 -0.999610 -0.027920
vn 0.000000 -0.999610 -0.027920
vn 0.999994 0.000098 -0.003509
vn 0.999994 0.000098 -0.003509
vn 0.999994 0.000098 -0.003509
vn 0.999994 0.000098 -0.003509
vn -0.003511 0.027920 -0.999604
vn -0.003511 0.027920 -0.999604
vn -0.003511 0.027920 -0.999604
vn -0.003511 0.027920 -0.999604
vn 0.003511 -0.027920 0.999604
vn 0.003511 -0.027920 0.999604
vn 0.003511 -0.027920 0.999604
vn 0.003511 -0.027920 0.999604
s off
g light Loot
f 1/1/1 2/2/2 4/4/3 3/3/4
f 3/3/5 4/4/6 6/6/7 5/5/8
f 5/5/9 6/6/10 8/8/11 7/7/12
f 7/7/13 8/8/14 2/10/15 1/9/16
f 2/2/17 8/11/18 6/12/19 4/4/20
f 7/13/21 1/1/22 3/3/23 5/14/24
