# This file uses centimeters as units for non-parametric coordinates.

mtllib light.mtl
g default
v 230.030937 63.722012 698.341242
v 230.021026 63.800829 695.519376
v 220.008592 63.721029 698.376415
v 219.998682 63.799846 695.554549
v 220.008592 52.106070 698.051999
v 219.998682 52.184887 695.230133
v 230.030937 52.107052 698.016826
v 230.021026 52.185870 695.194960
vt 0.375000 0.000000
vt 0.625000 0.000000
vt 0.375000 0.250000
vt 0.625000 0.250000
vt 0.375000 0.500000
vt 0.625000 0.500000
vt 0.375000 0.750000
vt 0.625000 0.750000
vt 0.375000 1.000000
vt 0.625000 1.000000
vt 0.875000 0.000000
vt 0.875000 0.250000
vt 0.125000 0.000000
vt 0.125000 0.250000
vn -0.000000 0.999610 0.027920
vn -0.000000 0.999610 0.027920
vn -0.000000 0.999610 0.027920
vn -0.000000 0.999610 0.027920
vn -0.999994 -0.000098 0.003509
vn -0.999994 -0.000098 0.003509
vn -0.999994 -0.000098 0.003509
vn -0.999994 -0.000098 0.003509
vn 0.000000 -0.999610 -0.027920
vn 0.000000 -0.999610 -0.027920
vn 0.000000 -0.999610 -0.027920
vn 0.000000 -0.999610 -0.027920
vn 0.999994 0.000098 -0.003509
vn 0.999994 0.000098 -0.003509
vn 0.999994 0.000098 -0.003509
vn 0.999994 0.000098 -0.003509
vn -0.003511 0.027920 -0.999604
vn -0.003511 0.027920 -0.999604
vn -0.003511 0.027920 -0.999604
vn -0.003511 0.027920 -0.999604
vn 0.003511 -0.027920 0.999604
vn 0.003511 -0.027920 0.999604
vn 0.003511 -0.027920 0.999604
vn 0.003511 -0.027920 0.999604
s off
g light Loot
usemtl initialShadingGroup
f 1/1/1 2/2/2 4/4/3 3/3/4
f 3/3/5 4/4/6 6/6/7 5/5/8
f 5/5/9 6/6/10 8/8/11 7/7/12
f 7/7/13 8/8/14 2/10/15 1/9/16
f 2/2/17 8/11/18 6/12/19 4/4/20
f 7/13/21 1/1/22 3/3/23 5/14/24
