# This file uses centimeters as units for non-parametric coordinates.

g default
v 204.087856 40.446205 645.360758
v 206.757106 40.446205 644.784824
v 204.087856 41.668572 645.360758
v 206.757106 41.668572 644.784824
v 203.561497 41.668572 641.241447
v 206.230664 41.668572 640.665395
v 203.561497 40.446205 641.241447
v 206.230664 40.446205 640.665395
v 202.770842 41.668572 638.939993
v 205.440001 41.668572 638.363871
v 205.440001 40.446205 638.363871
v 202.770842 40.446205 638.939993
v 212.791475 41.668572 639.137312
v 212.791475 40.446205 639.137312
v 212.159097 40.446205 636.801145
v 212.159097 41.668572 636.801145
v 203.015954 41.668572 639.718411
v 205.620818 41.668572 638.890285
v 212.381170 41.668572 637.525007
v 212.381170 40.446205 637.525007
v 205.620818 40.446205 638.890285
v 203.015954 40.446205 639.718411
v 202.045486 40.446205 639.516106
v 202.045486 41.668572 639.516106
v 201.864714 41.668572 638.989822
v 201.864714 40.446205 638.989822
v 212.761762 41.706705 637.435138
v 212.761762 40.484337 637.435138
v 212.585280 40.446205 636.718667
v 212.585280 41.668572 636.718667
vt 0.375000 0.000000
vt 0.625000 0.000000
vt 0.375000 0.250000
vt 0.625000 0.250000
vt 0.375000 0.500000
vt 0.625000 0.500000
vt 0.375000 0.750000
vt 0.625000 0.750000
vt 0.375000 1.000000
vt 0.625000 1.000000
vt 0.875000 0.000000
vt 0.875000 0.250000
vt 0.125000 0.000000
vt 0.125000 0.250000
vt 0.375000 0.500000
vt 0.625000 0.500000
vt 0.625000 0.750000
vt 0.375000 0.750000
vt 0.625000 0.500000
vt 0.625000 0.750000
vt 0.625000 0.750000
vt 0.625000 0.500000
vt 0.375000 0.500000
vt 0.625000 0.500000
vt 0.625000 0.500000
vt 0.625000 0.750000
vt 0.625000 0.750000
vt 0.375000 0.750000
vt 0.375000 0.750000
vt 0.375000 0.500000
vt 0.375000 0.500000
vt 0.375000 0.750000
vt 0.625000 0.500000
vt 0.625000 0.750000
vt 0.625000 0.750000
vt 0.625000 0.500000
vn 0.210912 0.000000 0.977505
vn 0.210912 0.000000 0.977505
vn 0.210912 0.000000 0.977505
vn 0.210912 0.000000 0.977505
vn 0.000000 1.000000 0.000000
vn 0.000000 1.000000 0.000000
vn 0.000000 1.000000 0.000000
vn 0.000000 1.000000 0.000000
vn -0.210985 0.000000 -0.977489
vn -0.210985 0.000000 -0.977489
vn -0.210985 0.000000 -0.977489
vn -0.210985 0.000000 -0.977489
vn 0.000000 -1.000000 0.000000
vn 0.000000 -1.000000 0.000000
vn 0.000000 -1.000000 0.000000
vn 0.000000 -1.000000 0.000000
vn 0.991933 0.000000 -0.126764
vn 0.991933 0.000000 -0.126764
vn 0.991933 0.000000 -0.126764
vn 0.991933 0.000000 -0.126764
vn -0.991935 0.000000 0.126748
vn -0.991935 0.000000 0.126748
vn -0.991935 0.000000 0.126748
vn -0.991935 0.000000 0.126748
vn -0.000000 1.000000 -0.000000
vn -0.000000 1.000000 -0.000000
vn 0.000000 1.000000 0.000000
vn 0.000000 1.000000 0.000000
vn 0.970977 0.000000 -0.239172
vn 0.970977 0.000000 -0.239172
vn 0.970977 0.000000 -0.239172
vn 0.970977 0.000000 -0.239172
vn -0.000000 -1.000000 -0.000000
vn -0.000000 -1.000000 -0.000000
vn 0.000000 -1.000000 0.000000
vn 0.000000 -1.000000 0.000000
vn -0.945762 0.000000 0.324859
vn -0.945762 0.000000 0.324859
vn -0.945762 0.000000 0.324859
vn -0.945762 0.000000 0.324859
vn 0.226839 0.000000 0.973932
vn 0.226839 0.000000 0.973932
vn 0.226839 0.000000 0.973932
vn 0.226839 0.000000 0.973932
vn -0.000000 -1.000000 -0.000000
vn -0.000000 -1.000000 -0.000000
vn -0.000000 -1.000000 -0.000000
vn -0.000000 -1.000000 -0.000000
vn -0.226534 0.000000 -0.974003
vn -0.226534 0.000000 -0.974003
vn -0.226534 0.000000 -0.974003
vn -0.226534 0.000000 -0.974003
vn -0.000000 1.000000 -0.000000
vn -0.000000 1.000000 -0.000000
vn -0.000000 1.000000 -0.000000
vn -0.000000 1.000000 -0.000000
vn -0.000000 1.000000 -0.000000
vn -0.000000 1.000000 -0.000000
vn 0.000000 1.000000 0.000000
vn 0.000000 1.000000 0.000000
vn 0.969112 0.000000 -0.246623
vn 0.969112 0.000000 -0.246623
vn 0.969112 0.000000 -0.246623
vn 0.969112 0.000000 -0.246623
vn -0.000000 -1.000000 -0.000000
vn -0.000000 -1.000000 -0.000000
vn -0.000000 -1.000000 -0.000000
vn -0.000000 -1.000000 -0.000000
vn -0.941428 0.000000 0.337214
vn -0.941428 0.000000 0.337214
vn -0.941428 0.000000 0.337214
vn -0.941428 0.000000 0.337214
vn -0.204074 0.000000 0.978955
vn -0.204074 0.000000 0.978955
vn -0.204074 0.000000 0.978955
vn -0.204074 0.000000 0.978955
vn 0.000000 1.000000 0.000000
vn 0.000000 1.000000 0.000000
vn 0.000000 1.000000 0.000000
vn 0.000000 1.000000 0.000000
vn -0.054909 0.000000 -0.998491
vn -0.054909 0.000000 -0.998491
vn -0.054909 0.000000 -0.998491
vn -0.054909 0.000000 -0.998491
vn -0.000000 -1.000000 -0.000000
vn -0.000000 -1.000000 -0.000000
vn -0.000000 -1.000000 -0.000000
vn -0.000000 -1.000000 -0.000000
vn 0.229810 0.000000 0.973236
vn 0.229810 0.000000 0.973236
vn 0.229810 0.000000 0.973236
vn 0.229810 0.000000 0.973236
vn 0.049901 -0.998674 0.012631
vn 0.049901 -0.998674 0.012631
vn 0.049901 -0.998674 0.012631
vn 0.049901 -0.998674 0.012631
vn -0.190002 0.000000 -0.981784
vn -0.190002 0.000000 -0.981784
vn -0.190002 0.000000 -0.981784
vn -0.190002 0.000000 -0.981784
vn -0.049901 0.998674 -0.012632
vn -0.049901 0.998674 -0.012632
vn -0.049901 0.998674 -0.012632
vn -0.049901 0.998674 -0.012632
s off
g gun Loot
f 1/1/1 2/2/2 4/4/3 3/3/4
f 3/3/5 4/4/6 6/6/7 5/5/8
f 9/15/9 10/16/10 11/17/11 12/18/12
f 7/7/13 8/8/14 2/10/15 1/9/16
f 2/2/17 8/11/18 6/12/19 4/4/20
f 7/13/21 1/1/22 3/3/23 5/14/24
s 1
f 17/23/25 18/24/26 10/16/27 9/15/28
s off
f 27/33/29 28/34/30 29/35/31 30/36/32
s 2
f 21/27/33 22/28/34 12/18/35 11/17/36
s off
f 23/29/37 24/30/38 25/31/39 26/32/40
f 6/6/41 8/8/42 14/20/43 13/19/44
s 3
f 20/26/45 21/27/46 11/17/47 15/21/48
s off
f 11/17/49 10/16/50 16/22/51 15/21/52
s 4
f 10/16/53 18/24/54 19/25/55 16/22/56
s 1
f 5/5/57 6/6/58 18/24/26 17/23/25
s 4
f 19/25/55 18/24/54 6/6/59 13/19/60
s off
f 13/19/61 14/20/62 20/26/63 19/25/64
s 3
f 8/8/65 21/27/46 20/26/45 14/20/66
s 2
f 8/8/67 7/7/68 22/28/34 21/27/33
s off
f 7/7/69 5/5/70 17/23/71 22/28/72
f 22/28/73 17/23/74 24/30/75 23/29/76
f 17/23/77 9/15/78 25/31/79 24/30/80
f 9/15/81 12/18/82 26/32/83 25/31/84
f 12/18/85 22/28/86 23/29/87 26/32/88
f 19/25/89 20/26/90 28/34/91 27/33/92
f 20/26/93 15/21/94 29/35/95 28/34/96
f 15/21/97 16/22/98 30/36/99 29/35/100
f 16/22/101 19/25/102 27/33/103 30/36/104
