# This file uses centimeters as units for non-parametric coordinates.

mtllib vent.mtl
g default
v 283.456562 69.745175 528.341205
v 287.972121 69.895425 522.961870
v 264.350923 70.192776 512.315921
v 268.866482 70.343026 506.936585
v 264.350923 41.289088 511.508615
v 268.866482 41.439337 506.129279
v 283.456562 40.841487 527.533900
v 287.972121 40.991737 522.154564
vt 0.375000 0.000000
vt 0.625000 0.000000
vt 0.375000 0.250000
vt 0.625000 0.250000
vt 0.375000 0.500000
vt 0.625000 0.500000
vt 0.375000 0.750000
vt 0.625000 0.750000
vt 0.375000 1.000000
vt 0.625000 1.000000
vt 0.875000 0.000000
vt 0.875000 0.250000
vt 0.125000 0.000000
vt 0.125000 0.250000
vn -0.000000 0.999610 0.027920
vn -0.000000 0.999610 0.027920
vn -0.000000 0.999610 0.027920
vn -0.000000 0.999610 0.027920
vn -0.766044 0.017947 -0.642537
vn -0.766044 0.017947 -0.642537
vn -0.766044 0.017947 -0.642537
vn -0.766044 0.017947 -0.642537
vn 0.000000 -0.999610 -0.027920
vn 0.000000 -0.999610 -0.027920
vn 0.000000 -0.999610 -0.027920
vn 0.000000 -0.999610 -0.027920
vn 0.766044 -0.017947 0.642537
vn 0.766044 -0.017947 0.642537
vn 0.766044 -0.017947 0.642537
vn 0.766044 -0.017947 0.642537
vn 0.642788 0.021388 -0.765746
vn 0.642788 0.021388 -0.765746
vn 0.642788 0.021388 -0.765746
vn 0.642788 0.021388 -0.765746
vn -0.642788 -0.021388 0.765746
vn -0.642788 -0.021388 0.765746
vn -0.642788 -0.021388 0.765746
vn -0.642788 -0.021388 0.765746
s off
g Vent Loot
usemtl initialShadingGroup
f 1/1/1 2/2/2 4/4/3 3/3/4
f 3/3/5 4/4/6 6/6/7 5/5/8
f 5/5/9 6/6/10 8/8/11 7/7/12
f 7/7/13 8/8/14 2/10/15 1/9/16
f 2/2/17 8/11/18 6/12/19 4/4/20
f 7/13/21 1/1/22 3/3/23 5/14/24
